<svg width="16" height="19" viewBox="0 0 16 19" fill="none" xmlns="http://www.w3.org/2000/svg">
<path d="M7.95117 7.18963H12.1573L12.4477 3.93469H7.95117V0.755981H7.96219H15.9216L15.8454 1.60881L15.0642 10.3681H7.95117V7.18963Z" fill="#2A2932"/>
<path d="M7.9705 15.4445L7.95658 15.4485L4.41655 14.4925L4.19017 11.9575H2.47009H0.999512L1.44475 16.9482L7.95582 18.7558L7.9705 18.7517V15.4445Z" fill="#2A2932"/>
<path d="M11.8869 10.2334L11.5041 14.4903L7.95898 15.4472V18.7542L14.4753 16.9481L14.5231 16.4112L15.076 10.2334H11.8869Z" fill="#2A2932"/>
<path d="M7.96244 0.755737V2.72994V3.92659V3.93445H0.294747H0.284591L0.220826 3.21999L0.0759714 1.60857L0 0.755737H7.96244Z" fill="#2A2932"/>
<path d="M7.9512 7.18994V9.16423V10.3607V10.3686H4.46613H4.45597L4.3923 9.65419L4.24736 8.04277L4.17139 7.18994H7.9512Z" fill="#2A2932"/>
</svg>
