<svg width="16" height="18" viewBox="0 0 16 18" fill="none" xmlns="http://www.w3.org/2000/svg">
<path d="M7.97049 6.43367H3.76437L3.47381 3.17872H7.97049V0H7.95948H0L0.076141 0.852831L0.857355 9.61213H7.97049V6.43367Z" fill="#2A2932"/>
<path d="M7.97061 14.6887L7.95669 14.6926L4.41664 13.7367L4.19027 11.2017H2.47018H0.999512L1.44483 16.1924L7.95592 18L7.97061 17.9959V14.6887Z" fill="#2A2932"/>
<path d="M7.95947 6.43372V9.61218H11.8736L11.5046 13.7346L7.95947 14.6914V17.9985L14.4759 16.1924L14.5236 15.6555L15.2706 7.28723L15.3481 6.43372H14.4916H7.95947Z" fill="#2A2932"/>
<path d="M7.95947 0V1.97421V3.17087V3.17872H15.6271H15.6373L15.7011 2.46426L15.8459 0.852831L15.9219 0H7.95947Z" fill="#2A2932"/>
</svg>
